# xmcd CD database file
#
# Track frame offsets:
#	150
#	20961
#	36376
#	66337
#	89182
#	106799
#	121244
#	138939
#	154761
#	194737
#	216139
#	248239
#
# Disc length: 3589 seconds
#
# Revision: 0
# Processed by: cddbd v1.5.1PL0 Copyright (c) Steve Scherf et al.
# Submitted via: CDex 1.51
#
DISCID=b70e030c
DTITLE=Just Us - Sweet and Lovely
DYEAR=2001
DGENRE=Jazz
TTITLE0=Sweet and Lovely
TTITLE1=Just Being Me and You
TTITLE2=Yesterdays
TTITLE3=Polka Dots and Moonbeams
TTITLE4=The Smoking Section
TTITLE5=When Sunny Gets Blue
TTITLE6=Changing Tide
TTITLE7=Yes Sir, That's My Baby
TTITLE8=Nica's Dream
TTITLE9=Everything Must Change
TTITLE10=Just Squeeze Me
TTITLE11=Song For My Father
EXTD=YEAR: 2001
EXTT0=
EXTT1=
EXTT2=
EXTT3=
EXTT4=
EXTT5=
EXTT6=
EXTT7=
EXTT8=
EXTT9=
EXTT10=
EXTT11=
PLAYORDER=
